<svg id="visual" viewBox="0 0 900 600" width="900" height="600" xmlns="http://www.w3.org/2000/svg" xmlns:xlink="http://www.w3.org/1999/xlink" version="1.1"><rect x="0" y="0" width="900" height="600" fill="#001220"></rect><defs><linearGradient id="grad1_0" x1="33.3%" y1="0%" x2="100%" y2="100%"><stop offset="20%" stop-color="#001220" stop-opacity="1"></stop><stop offset="80%" stop-color="#001220" stop-opacity="1"></stop></linearGradient></defs><defs><linearGradient id="grad2_0" x1="0%" y1="0%" x2="66.7%" y2="100%"><stop offset="20%" stop-color="#001220" stop-opacity="1"></stop><stop offset="80%" stop-color="#001220" stop-opacity="1"></stop></linearGradient></defs><g transform="translate(900, 0)"><path d="M0 486.7C-66.7 478.4 -133.4 470 -181 437C-228.6 404 -257.2 346.5 -304.1 304.1C-350.9 261.7 -416.2 234.4 -449.7 186.3C-483.2 138.1 -485 69.1 -486.7 0L0 0Z" fill="#FBAE3C"></path></g><g transform="translate(0, 600)"><path d="M0 -486.7C51.6 -439.8 103.2 -392.8 150 -362.2C196.8 -331.5 238.8 -317.1 293.4 -293.4C348.1 -269.8 415.4 -236.7 449.7 -186.3C484 -135.8 485.4 -67.9 486.7 0L0 0Z" fill="#FBAE3C"></path></g></svg>