<svg id="visual" viewBox="0 0 900 600" width="900" height="600" xmlns="http://www.w3.org/2000/svg" xmlns:xlink="http://www.w3.org/1999/xlink" version="1.1"><path d="M0 354L25 355C50 356 100 358 150 362.8C200 367.7 250 375.3 300 377.8C350 380.3 400 377.7 450 383.5C500 389.3 550 403.7 600 400.3C650 397 700 376 750 368.3C800 360.7 850 366.3 875 369.2L900 372L900 601L875 601C850 601 800 601 750 601C700 601 650 601 600 601C550 601 500 601 450 601C400 601 350 601 300 601C250 601 200 601 150 601C100 601 50 601 25 601L0 601Z" fill="#c62368"></path><path d="M0 413L25 413.2C50 413.3 100 413.7 150 413.5C200 413.3 250 412.7 300 417.8C350 423 400 434 450 443C500 452 550 459 600 455.8C650 452.7 700 439.3 750 436.3C800 433.3 850 440.7 875 444.3L900 448L900 601L875 601C850 601 800 601 750 601C700 601 650 601 600 601C550 601 500 601 450 601C400 601 350 601 300 601C250 601 200 601 150 601C100 601 50 601 25 601L0 601Z" fill="#da3f67"></path><path d="M0 490L25 486C50 482 100 474 150 473.2C200 472.3 250 478.7 300 479C350 479.3 400 473.7 450 472.3C500 471 550 474 600 473C650 472 700 467 750 471.3C800 475.7 850 489.3 875 496.2L900 503L900 601L875 601C850 601 800 601 750 601C700 601 650 601 600 601C550 601 500 601 450 601C400 601 350 601 300 601C250 601 200 601 150 601C100 601 50 601 25 601L0 601Z" fill="#eb5967"></path><path d="M0 530L25 526.7C50 523.3 100 516.7 150 517.7C200 518.7 250 527.3 300 534.8C350 542.3 400 548.7 450 552C500 555.3 550 555.7 600 549.7C650 543.7 700 531.3 750 526.2C800 521 850 523 875 524L900 525L900 601L875 601C850 601 800 601 750 601C700 601 650 601 600 601C550 601 500 601 450 601C400 601 350 601 300 601C250 601 200 601 150 601C100 601 50 601 25 601L0 601Z" fill="#fa7268"></path></svg>