<svg id="visual" viewBox="0 0 900 600" width="900" height="600" xmlns="http://www.w3.org/2000/svg" xmlns:xlink="http://www.w3.org/1999/xlink" version="1.1"><path d="M0 103L15 103C30 103 60 103 90 102C120 101 150 99 180 99C210 99 240 101 270 103C300 105 330 107 360 102C390 97 420 85 450 78C480 71 510 69 540 73C570 77 600 87 630 98C660 109 690 121 720 118C750 115 780 97 810 85C840 73 870 67 885 64L900 61L900 0L885 0C870 0 840 0 810 0C780 0 750 0 720 0C690 0 660 0 630 0C600 0 570 0 540 0C510 0 480 0 450 0C420 0 390 0 360 0C330 0 300 0 270 0C240 0 210 0 180 0C150 0 120 0 90 0C60 0 30 0 15 0L0 0Z" fill="#080909"></path><path d="M0 295L15 281C30 267 60 239 90 227C120 215 150 219 180 225C210 231 240 239 270 249C300 259 330 271 360 271C390 271 420 259 450 243C480 227 510 207 540 205C570 203 600 219 630 230C660 241 690 247 720 248C750 249 780 245 810 238C840 231 870 221 885 216L900 211L900 59L885 62C870 65 840 71 810 83C780 95 750 113 720 116C690 119 660 107 630 96C600 85 570 75 540 71C510 67 480 69 450 76C420 83 390 95 360 100C330 105 300 103 270 101C240 99 210 97 180 97C150 97 120 99 90 100C60 101 30 101 15 101L0 101Z" fill="#161717"></path><path d="M0 457L15 449C30 441 60 425 90 421C120 417 150 425 180 432C210 439 240 445 270 449C300 453 330 455 360 455C390 455 420 453 450 447C480 441 510 431 540 423C570 415 600 409 630 419C660 429 690 455 720 463C750 471 780 461 810 451C840 441 870 431 885 426L900 421L900 209L885 214C870 219 840 229 810 236C780 243 750 247 720 246C690 245 660 239 630 228C600 217 570 201 540 203C510 205 480 225 450 241C420 257 390 269 360 269C330 269 300 257 270 247C240 237 210 229 180 223C150 217 120 213 90 225C60 237 30 265 15 279L0 293Z" fill="#2e3232"></path><path d="M0 511L15 510C30 509 60 507 90 508C120 509 150 513 180 516C210 519 240 521 270 523C300 525 330 527 360 530C390 533 420 537 450 531C480 525 510 509 540 500C570 491 600 489 630 496C660 503 690 519 720 521C750 523 780 511 810 507C840 503 870 507 885 509L900 511L900 419L885 424C870 429 840 439 810 449C780 459 750 469 720 461C690 453 660 427 630 417C600 407 570 413 540 421C510 429 480 439 450 445C420 451 390 453 360 453C330 453 300 451 270 447C240 443 210 437 180 430C150 423 120 415 90 419C60 423 30 439 15 447L0 455Z" fill="#161717"></path><path d="M0 601L15 601C30 601 60 601 90 601C120 601 150 601 180 601C210 601 240 601 270 601C300 601 330 601 360 601C390 601 420 601 450 601C480 601 510 601 540 601C570 601 600 601 630 601C660 601 690 601 720 601C750 601 780 601 810 601C840 601 870 601 885 601L900 601L900 509L885 507C870 505 840 501 810 505C780 509 750 521 720 519C690 517 660 501 630 494C600 487 570 489 540 498C510 507 480 523 450 529C420 535 390 531 360 528C330 525 300 523 270 521C240 519 210 517 180 514C150 511 120 507 90 506C60 505 30 507 15 508L0 509Z" fill="#080909"></path></svg>